<?xml version="1.0" standalone="no"?>
<!DOCTYPE svg PUBLIC "-//W3C//DTD SVG 20010904//EN"
 "http://www.w3.org/TR/2001/REC-SVG-20010904/DTD/svg10.dtd">
<svg version="1.0" xmlns="http://www.w3.org/2000/svg"
 width="500.000000pt" height="500.000000pt" viewBox="0 0 500.000000 500.000000"
 preserveAspectRatio="xMidYMid meet">
<metadata>
Created by potrace 1.14, written by Peter Selinger 2001-2017
</metadata>
<g transform="translate(0.000000,500.000000) scale(0.100000,-0.100000)"
fill="#000000" stroke="none">
<path d="M3720 4060 c0 -5 -15 -41 -34 -80 -50 -102 -68 -164 -72 -244 -12
-260 -23 -336 -49 -336 -25 0 -30 23 -30 130 l0 105 -70 103 -70 103 -5 -43
c-11 -94 -2 -284 19 -418 13 -83 11 -208 -5 -275 -8 -33 -16 -69 -19 -80 -2
-11 -11 -47 -19 -81 -8 -34 -17 -72 -20 -85 -3 -13 -17 -78 -31 -143 -45 -207
-40 -286 22 -350 61 -63 141 -68 224 -14 27 18 49 36 49 40 0 5 5 8 11 8 15 0
57 52 101 121 35 58 57 112 114 289 35 111 79 178 151 232 168 125 218 205
221 358 l2 65 -20 -37 c-11 -20 -33 -47 -49 -60 -16 -12 -40 -42 -55 -65 -34
-56 -61 -71 -77 -42 -9 17 -8 32 1 63 21 71 56 121 114 159 76 50 87 76 93
216 l6 116 -29 -35 c-16 -19 -40 -44 -53 -54 -43 -35 -61 -60 -73 -97 -12 -43
-119 -186 -133 -179 -23 12 2 112 56 224 l39 81 -5 115 c-3 63 -5 122 -5 132
0 75 -92 -115 -135 -278 -18 -71 -37 -138 -42 -149 -19 -44 -56 -95 -68 -95
-20 0 -45 29 -46 53 -1 12 -3 40 -5 62 -3 40 20 140 37 161 16 20 21 98 9 144
-6 25 -16 73 -22 108 -6 34 -14 62 -19 62 -5 0 -9 -4 -9 -10z"/>
<path d="M1081 3473 c-6 -32 -19 -83 -28 -113 -23 -79 -23 -93 -2 -162 18 -60
28 -127 32 -211 2 -27 -2 -37 -13 -37 -20 0 -97 150 -106 207 -4 26 -23 67
-50 105 -24 34 -44 68 -44 75 0 7 -4 13 -9 13 -9 0 -32 -126 -33 -185 -1 -92
-3 -89 80 -168 49 -47 83 -209 47 -223 -22 -9 -45 14 -67 65 -10 24 -29 57
-43 73 -13 16 -27 45 -31 64 -5 26 -9 33 -18 24 -7 -7 -11 -52 -11 -118 0
-103 1 -109 34 -167 18 -32 51 -77 72 -100 59 -60 106 -133 128 -195 18 -51
24 -82 35 -177 5 -44 19 -146 21 -153 1 -3 5 -21 9 -40 8 -37 64 -157 81 -176
6 -6 19 -23 30 -38 30 -41 95 -83 141 -90 66 -11 135 23 167 82 40 75 46 162
31 497 -12 278 -6 332 56 515 10 30 22 69 26 85 4 17 9 35 11 40 12 37 33 150
38 205 l6 65 -90 -94 c-96 -100 -105 -119 -115 -239 -4 -59 -14 -76 -42 -70
-24 4 -25 59 -6 198 22 168 24 185 26 215 2 28 -9 83 -33 165 -5 19 -15 55
-21 80 l-12 45 -23 -70 c-12 -39 -31 -86 -41 -105 -20 -37 -22 -77 -10 -215 6
-70 4 -87 -16 -135 -19 -46 -27 -55 -48 -55 -22 0 -28 8 -48 68 -13 41 -24
102 -27 155 -4 82 -11 153 -21 215 -5 29 -43 137 -49 137 -2 0 -8 -26 -14 -57z"/>
<path d="M2729 2614 c0 -10 -2 -28 -5 -39 -36 -173 -40 -199 -34 -252 9 -80 4
-212 -9 -245 -19 -49 -64 -33 -75 27 -12 68 -19 90 -52 158 -38 80 -53 100
-105 140 -45 34 -51 34 -43 0 10 -49 57 -207 65 -223 101 -195 125 -265 134
-385 8 -102 18 -138 50 -186 70 -101 234 -97 292 7 13 25 23 65 27 110 8 118
38 203 89 263 48 56 66 106 62 173 -2 32 -8 66 -13 75 -9 14 -10 14 -16 -5 -4
-12 -27 -36 -51 -52 -35 -24 -47 -40 -55 -73 -16 -64 -28 -87 -45 -87 -8 0
-15 6 -16 13 -1 6 -2 24 -3 39 -3 26 27 106 43 118 17 12 45 89 49 135 3 40
-1 60 -22 99 -14 27 -26 63 -27 80 l0 31 -16 -35 c-8 -19 -26 -57 -39 -85 -30
-65 -35 -85 -39 -158 -4 -67 -28 -147 -48 -159 -8 -5 -17 10 -28 50 -16 57
-17 99 -4 182 12 76 8 114 -25 206 -34 96 -40 107 -41 78z"/>
<path d="M1961 1973 c-6 -21 -10 -40 -9 -43 1 -3 -4 -15 -10 -27 -12 -22 -26
-87 -24 -113 1 -8 8 -51 16 -95 7 -44 12 -95 10 -115 -7 -54 -24 -100 -38
-100 -16 0 -53 109 -60 175 -7 62 -15 96 -31 115 -17 22 -45 86 -45 103 0 9
-4 19 -10 22 -5 3 -10 -3 -10 -15 0 -11 -11 -47 -25 -80 -16 -39 -24 -72 -21
-94 5 -42 53 -146 77 -166 11 -10 29 -74 29 -106 0 -68 -42 -44 -56 32 -6 31
-35 68 -69 87 -22 13 -45 33 -52 47 -11 23 -12 23 -20 5 -4 -11 -7 -48 -7 -82
2 -70 17 -103 87 -184 23 -27 42 -52 43 -56 0 -5 8 -25 17 -45 9 -20 19 -70
23 -110 9 -126 51 -187 139 -204 50 -10 70 -7 120 17 71 33 103 102 110 232 7
136 17 180 80 330 32 78 71 210 88 305 6 29 5 31 -11 23 -45 -25 -141 -141
-116 -141 4 0 2 -6 -3 -12 -15 -19 -53 -143 -53 -171 0 -14 -9 -35 -19 -48
-47 -58 -81 31 -81 214 0 108 -19 230 -47 297 -3 8 -5 21 -4 28 4 28 -9 9 -18
-25z"/>
</g>
</svg>
