<?xml version="1.0" standalone="no"?>
<!DOCTYPE svg PUBLIC "-//W3C//DTD SVG 20010904//EN"
 "http://www.w3.org/TR/2001/REC-SVG-20010904/DTD/svg10.dtd">
<svg version="1.0" xmlns="http://www.w3.org/2000/svg"
 width="1024.000000pt" height="1024.000000pt" viewBox="0 0 1024.000000 1024.000000"
 preserveAspectRatio="xMidYMid meet">
<metadata>
Created by potrace 1.14, written by Peter Selinger 2001-2017
</metadata>
<g transform="translate(0.000000,1024.000000) scale(0.100000,-0.100000)"
fill="#000000" stroke="none">
<path d="M7616 8290 c-16 -36 -64 -140 -108 -232 -48 -103 -84 -194 -93 -235
-7 -38 -18 -174 -24 -303 -11 -245 -34 -475 -53 -523 -20 -50 -91 -44 -104 9
-4 15 -3 63 2 108 5 44 9 128 9 186 -1 92 -4 112 -27 162 -14 31 -43 78 -65
105 -21 27 -74 104 -117 172 -49 76 -82 119 -88 113 -5 -5 -12 -112 -15 -238
-6 -247 3 -404 40 -639 16 -106 21 -186 21 -330 l0 -190 -47 -200 c-77 -322
-156 -670 -184 -815 -20 -106 -26 -167 -27 -285 -1 -143 0 -153 26 -207 35
-76 106 -150 171 -179 42 -19 69 -24 142 -24 80 0 96 3 145 29 84 43 177 116
261 203 148 153 215 282 314 605 101 327 149 425 269 555 38 41 119 112 180
158 179 134 283 256 326 378 32 95 50 212 50 326 l-1 106 -33 -71 c-25 -54
-52 -89 -109 -144 -41 -40 -92 -101 -112 -136 -54 -92 -120 -128 -158 -86 -22
24 -21 52 2 134 47 165 119 264 248 340 85 50 124 94 149 168 19 53 36 275 32
405 l-3 100 -33 -52 c-18 -28 -56 -72 -85 -98 -125 -114 -135 -126 -173 -213
-21 -48 -51 -107 -68 -132 -43 -65 -206 -270 -216 -270 -61 0 2 255 125 505
73 149 80 184 59 298 -12 66 -15 118 -11 189 6 98 0 198 -12 198 -11 0 -98
-149 -139 -240 -50 -109 -73 -181 -117 -360 -48 -196 -70 -259 -123 -364 -58
-113 -85 -146 -122 -146 -52 0 -72 39 -90 181 -12 92 0 193 34 288 13 36 36
98 50 136 31 86 33 156 6 256 -18 64 -35 148 -68 324 l-7 40 -29 -65z"/>
<path d="M2222 7177 c-7 -24 -19 -88 -26 -142 -8 -61 -24 -126 -40 -165 -44
-103 -45 -182 -7 -317 44 -154 59 -242 67 -380 6 -102 5 -120 -10 -132 -8 -7
-22 -11 -29 -8 -7 2 -50 78 -95 168 -66 130 -87 183 -103 258 -23 109 -34 132
-91 198 -55 63 -96 129 -110 176 -6 20 -14 37 -18 37 -20 0 -63 -288 -64 -420
-1 -141 5 -155 118 -265 60 -58 92 -98 114 -145 55 -111 82 -319 46 -354 -27
-28 -69 -20 -103 19 -17 20 -34 48 -37 63 -14 56 -47 119 -90 174 -49 62 -81
129 -90 190 -4 22 -11 35 -15 31 -20 -20 -41 -218 -35 -328 10 -198 65 -308
271 -535 195 -216 254 -370 290 -755 30 -319 88 -509 207 -682 66 -97 200
-234 254 -261 60 -30 150 -44 212 -32 139 26 239 124 285 279 27 94 33 419 16
881 -24 630 -21 659 100 1027 70 214 108 352 137 504 17 89 53 352 49 357 -3
4 -315 -310 -340 -343 -42 -56 -65 -140 -76 -278 -6 -72 -17 -146 -24 -164
-17 -41 -57 -54 -85 -28 -17 15 -20 31 -20 104 0 112 23 324 56 531 18 118 25
187 21 240 -5 69 -111 514 -127 533 -4 4 -19 -29 -35 -75 -15 -46 -54 -141
-88 -212 -73 -159 -79 -202 -48 -360 36 -183 27 -292 -37 -444 -29 -72 -55
-91 -104 -79 -20 5 -32 21 -52 73 -48 120 -66 217 -81 454 -8 124 -19 251 -24
283 -22 128 -96 357 -118 364 -5 2 -14 -16 -21 -40z"/>
<path d="M5590 5335 c-6 -33 -25 -118 -41 -188 -48 -219 -52 -264 -34 -461 17
-184 11 -317 -18 -418 -15 -50 -49 -75 -91 -64 -38 9 -60 52 -80 153 -35 178
-135 390 -234 495 -63 66 -157 136 -169 124 -9 -9 52 -250 101 -392 59 -174
76 -215 150 -363 35 -69 72 -144 80 -166 28 -66 64 -224 76 -325 6 -52 15
-132 20 -176 11 -102 39 -183 87 -252 76 -111 170 -162 298 -162 123 0 218 48
284 143 45 65 60 125 70 279 15 211 57 337 161 478 138 187 155 231 147 384
-2 55 -12 125 -22 155 l-17 55 -18 -53 c-20 -61 -50 -95 -105 -123 -78 -39
-102 -77 -129 -198 -20 -89 -38 -120 -69 -120 -36 0 -47 19 -47 86 0 81 27
164 78 243 23 35 56 98 74 140 30 70 33 85 33 181 0 95 -2 109 -25 145 -39 63
-60 113 -73 182 -6 35 -14 63 -17 63 -4 0 -14 -32 -25 -71 -10 -39 -38 -110
-62 -156 -60 -118 -72 -167 -83 -325 -13 -201 -78 -385 -118 -335 -33 40 -72
199 -72 292 0 31 9 116 21 188 21 135 20 228 -3 285 -6 15 -34 97 -63 182
l-52 155 -13 -60z"/>
<path d="M4015 4058 c-10 -40 -33 -122 -51 -181 -43 -137 -44 -215 -8 -388 21
-101 25 -142 21 -224 -5 -115 -40 -238 -69 -243 -39 -7 -102 175 -123 355 -17
149 -30 192 -85 284 -43 71 -86 171 -96 226 -8 43 -24 25 -24 -28 0 -49 -26
-135 -58 -189 -33 -58 -42 -171 -18 -251 18 -64 64 -153 114 -224 59 -82 83
-148 89 -235 6 -78 5 -79 -21 -91 -41 -19 -68 14 -96 116 -29 111 -51 143
-129 183 -73 37 -94 59 -120 127 l-19 50 -13 -45 c-9 -27 -14 -94 -14 -170 0
-120 1 -128 32 -190 17 -36 65 -105 107 -155 131 -155 185 -284 211 -505 21
-179 35 -218 108 -297 63 -68 125 -96 227 -101 71 -3 95 0 145 19 78 29 153
100 198 187 47 92 55 131 67 338 12 210 41 355 96 477 70 157 123 294 159 412
39 130 103 431 93 441 -4 3 -27 -8 -51 -25 -166 -114 -287 -363 -333 -686 -7
-49 -45 -88 -84 -87 -45 1 -58 17 -82 103 -18 63 -22 117 -28 369 l-7 295 -56
199 c-31 109 -58 201 -61 203 -2 2 -12 -29 -21 -69z"/>
</g>
</svg>
